<?xml version="1.0" encoding="UTF-8"?>
<svg xmlns="http://www.w3.org/2000/svg" width="1024" height="1024" viewBox="0 0 1024 1024">
  <rect width="1024" height="1024" rx="225" fill="#050505"/>
  <rect x="1" y="1" width="1022" height="1022" rx="225" fill="none" stroke="rgba(255,255,255,0.08)"/>
  <g transform="translate(200 200) scale(1.8299120234604105 1.782857142857143)">
    <path d="M340.625 120.312C296.875 146.354 257.812 164.583 223.438 175C257.812 185.417 296.875 203.646 340.625 229.688L303.125 295.312C255.208 266.146 219.792 241.667 196.875 221.875C204.167 254.167 207.812 296.875 207.812 350H132.812C132.812 296.875 136.458 254.167 143.75 221.875C120.833 241.667 85.4167 266.146 37.5 295.312L0 229.688C43.75 203.646 82.8125 185.417 117.188 175C82.8125 164.583 43.75 146.354 0 120.312L37.5 54.6875C85.4167 83.8542 120.833 108.333 143.75 128.125C136.458 95.8333 132.812 53.125 132.812 0H207.812C207.812 53.125 204.167 95.8333 196.875 128.125C219.792 108.333 255.208 83.8542 303.125 54.6875L340.625 120.312Z" fill="#ffffff"/>
  </g>
</svg>